<svg width="500" height="500" viewBox="0 0 500 500" fill="none" xmlns="http://www.w3.org/2000/svg">
<g clip-path="url(#clip0_2_96)">
<path d="M194.844 114.448C203.37 113.554 212.006 114.033 220.427 115.576C230.774 117.402 240.76 121.477 249.253 127.679C259.988 135.444 268.06 146.725 272.175 159.288C272.663 161.015 273.402 162.749 273.532 164.528C263.525 167.742 253.453 170.778 243.422 173.935C242.845 174.12 242.262 174.274 241.671 174.404C239.593 165.823 234.353 157.917 226.918 153.056C218.814 147.84 208.844 145.969 199.318 146.832C189.363 147.648 179.706 152.028 172.65 159.101C166.142 165.584 162.183 174.333 160.833 183.355C159.264 193.738 160.318 204.787 165.329 214.149C169.902 222.99 177.937 229.885 187.241 233.387C197.533 237.321 209.23 237.413 219.624 233.795C227.492 231.07 234.305 225.553 238.652 218.469C240.572 215.334 242.155 211.972 243.147 208.429C247.137 209.351 251.052 210.619 255.016 211.667C261.863 213.62 268.742 215.481 275.558 217.551C272.052 231.543 264.009 244.374 252.886 253.591C242.248 262.474 228.79 267.61 215.077 269.17C204.239 270.414 193.14 269.989 182.539 267.326C168.59 263.869 155.489 256.635 145.606 246.16C136.31 236.565 130.026 224.245 127.086 211.265C122.502 190.629 125.376 168.008 136.677 149.939C142.924 139.782 151.754 131.266 161.99 125.149C171.959 119.193 183.287 115.571 194.843 114.45L194.844 114.448Z" fill="#FA4F00"/>
<path d="M315.049 161.594C323.225 158.544 332.189 158.074 340.783 159.257C347.019 160.055 353.16 161.971 358.534 165.271C367.253 170.486 373.569 179.876 374.399 190.05C365.44 191.636 356.48 193.233 347.535 194.875C346.848 191.633 345.756 188.306 343.307 185.941C339.691 182.456 334.248 181.5 329.424 182.349C326.426 182.802 323.562 184.508 321.979 187.123C320.87 188.925 320.636 191.215 321.275 193.223C322.374 196.18 325.417 197.959 328.408 198.5C338.634 200.799 349.469 201.666 358.789 206.858C364.619 210.004 369.685 214.74 372.737 220.654C375.035 225.081 375.945 230.109 376 235.061C375.729 241.377 373.933 247.689 370.409 252.976C367.027 258.099 362.195 262.211 356.697 264.925C350.598 267.968 343.795 269.476 337.005 269.737C329.186 270.103 321.225 269.369 313.815 266.769C307.823 264.658 302.229 261.272 297.892 256.608C292.868 251.207 289.313 244.217 288.784 236.801C297.998 235.266 307.181 233.56 316.384 231.959C316.721 236.048 318.544 240.132 321.834 242.685C325.635 245.577 330.649 246.451 335.322 245.927C338.104 245.653 340.923 244.656 342.912 242.634C344.928 240.615 345.916 237.439 344.811 234.725C344.134 232.658 342.273 231.329 340.419 230.379C337.318 228.886 333.873 228.392 330.553 227.607C323.025 225.88 315.256 224.54 308.355 220.901C303.073 218.249 298.389 214.27 295.265 209.229C291.947 203.856 290.773 197.362 291.198 191.122C291.652 184.437 294.389 177.98 298.691 172.861C303.001 167.728 308.76 163.883 315.048 161.594L315.049 161.594Z" fill="#FA4F00"/>
<path d="M125.496 298.834C171.331 298.858 217.165 298.824 262.998 298.852C260.124 301.302 257.016 303.464 254.052 305.805C231.821 322.798 209.602 339.805 187.366 356.789C166.8 372.542 146.157 388.196 125.632 404H125.505C125.492 368.943 125.474 333.892 125.492 298.835L125.496 298.834Z" fill="#FA4F00"/>
</g>
<defs>
<clipPath id="clip0_2_96">
<rect width="251" height="290" fill="white" transform="translate(125 114)"/>
</clipPath>
</defs>
</svg>
