<svg width="500" height="500" viewBox="0 0 500 500" fill="none" xmlns="http://www.w3.org/2000/svg">
<defs>
<linearGradient id="paint0_linear_2_119" x1="176.496" y1="451.744" x2="885.87" y2="28.7758" gradientUnits="userSpaceOnUse">
<stop stop-color="#99BC68"/>
<stop offset="0.286119" stop-color="#654A69"/>
<stop offset="0.448235" stop-color="#5B346B"/>
<stop offset="0.637087" stop-color="#593366"/>
<stop offset="0.724875" stop-color="#6E2A5B"/>
<stop offset="0.866702" stop-color="#A21E35"/>
<stop offset="1" stop-color="#B11F2A"/>
</linearGradient>
</defs>
<path d="M247.968 209.206L253.425 203.098C266.522 188.482 277.873 181.283 287.478 181.283C311.271 181.283 324.368 200.916 324.368 214.223C324.368 251.963 275.254 291.667 248.405 311.518C247.968 311.736 247.531 312.173 246.877 312.609C246.44 313.045 246.003 313.264 245.567 313.7C243.602 315.009 241.419 316.536 239.891 316.536C237.49 316.536 233.343 312.827 231.378 311.518C210.204 295.812 194.269 281.85 182.045 268.106C164.364 248.255 155.414 230.148 155.414 214.223C155.414 200.698 168.511 181.283 192.305 181.283C201.909 181.283 213.26 188.7 226.358 203.098L231.815 209.206C232.906 210.515 235.744 213.569 239.891 213.569C244.257 213.569 247.095 210.515 247.968 209.206ZM247.095 191.972C246.44 192.627 245.785 193.499 244.912 194.154C243.166 195.899 241.201 197.644 239.673 197.644C238.145 197.644 236.18 195.899 234.434 194.154C233.779 193.499 233.124 192.627 232.47 191.972C232.033 191.536 231.815 191.099 231.596 190.881C217.408 176.047 204.311 168.848 192.086 168.848C177.898 168.848 165.019 174.302 155.633 184.337C147.556 192.845 142.754 203.97 142.754 214.223C142.754 233.421 152.795 254.363 172.659 276.396C187.502 292.976 206.93 309.555 234.216 328.97C235.526 329.843 237.49 331.152 239.673 331.152C240.764 331.152 242.511 330.934 244.912 329.188H245.13C267.832 313.045 336.592 263.962 336.592 214.442C336.592 204.407 331.79 193.281 323.714 184.555C314.327 174.52 301.448 169.066 287.26 169.066C275.036 168.848 261.72 176.483 247.095 191.972ZM247.313 162.304C246.658 162.74 246.003 163.394 245.349 163.831C243.602 165.14 241.638 166.23 240.11 166.23C238.145 166.23 236.18 164.921 234.434 163.394C234.216 163.176 234.216 163.176 233.998 162.958C220.027 152.051 206.493 146.815 192.523 146.815C172.222 146.815 153.668 154.887 139.916 169.284C128.128 181.719 121.143 198.517 121.143 214.005C121.143 238.874 133.149 264.616 156.724 290.794C172.659 308.464 193.178 326.134 221.774 346.422C225.703 349.258 232.033 352.749 240.328 352.749C246.44 352.749 252.334 350.785 258.009 347.077L258.664 346.64C273.944 335.733 286.386 326.134 297.519 316.536C300.139 314.354 300.357 310.428 298.174 307.81C295.991 305.192 292.062 304.974 289.442 307.155C278.528 316.536 266.522 325.916 251.461 336.606L251.024 336.824C247.313 339.223 244.039 340.314 240.328 340.314C235.526 340.314 231.596 338.133 229.195 336.387C201.473 316.754 181.39 299.52 166.11 282.504C144.718 258.508 133.804 235.384 133.804 213.787C133.804 201.353 139.479 187.609 149.302 177.356C160.653 165.358 175.933 158.813 192.741 158.813C206.057 158.813 219.154 165.14 233.343 178.01L233.779 178.447C234.871 179.319 237.49 181.065 240.546 181.065C243.821 181.065 246.222 179.319 246.877 178.883L247.313 178.447C261.502 165.358 274.817 159.031 288.133 159.031C304.941 159.031 320.439 165.576 331.572 177.574C341.177 187.827 347.07 201.571 347.07 214.005C347.07 217.496 349.908 220.113 353.182 220.113C356.675 220.113 359.294 217.277 359.294 214.005C359.294 198.517 352.309 181.719 340.522 169.284C326.988 154.887 308.215 146.815 287.914 146.815C273.944 147.033 260.629 152.051 247.313 162.304ZM246.44 136.344C246.222 136.344 246.222 136.562 246.003 136.562C243.821 137.871 241.201 139.18 239.891 139.18C238.582 139.18 235.962 137.871 233.779 136.78C233.561 136.562 233.343 136.562 233.124 136.344C219.809 128.709 206.493 125 192.305 125C165.892 125 141.444 135.471 123.763 154.45C122.671 155.541 121.58 156.85 120.488 158.159C118.305 160.777 118.524 164.703 121.143 166.885C123.763 169.066 127.692 168.848 129.875 166.23C130.748 165.14 131.839 164.049 132.712 162.958C148.211 146.379 169.166 137.216 192.305 137.216C206.057 137.216 219.372 141.361 232.47 150.087C236.617 153.36 238.582 153.578 239.891 153.578C241.419 153.578 243.166 153.36 247.313 150.087C260.629 141.361 273.726 137.216 287.696 137.216C310.616 137.216 331.79 146.379 347.289 162.74C360.822 177.138 368.681 195.899 368.681 214.223C368.681 241.056 356.238 268.979 331.354 296.684C309.743 320.899 282.457 341.405 263.903 354.712L263.03 355.148C255.826 359.948 247.968 362.565 239.891 362.565C231.378 362.565 223.083 359.729 215.661 354.494C186.629 333.77 165.455 315.663 149.302 297.557C144.282 291.885 139.479 286.213 135.55 280.541C133.586 277.705 129.656 277.051 127.037 279.232C124.199 281.195 123.544 285.122 125.727 287.74C130.093 293.848 134.895 299.956 140.352 305.846C157.379 324.825 178.989 343.368 208.895 364.529C218.281 371.291 229.195 375 240.328 375C250.806 375 260.847 371.728 270.233 365.62L271.325 364.965C290.534 351.44 318.475 330.279 340.958 304.974C367.371 274.869 380.905 244.328 380.905 214.223C380.905 192.845 371.955 171.03 356.238 154.45C338.339 135.471 314.109 125 287.696 125C273.289 125 259.755 128.709 246.44 136.344Z" fill="url(#paint0_linear_2_119)"/>
</svg>
