<svg width="500" height="500" viewBox="0 0 500 500" fill="none" xmlns="http://www.w3.org/2000/svg">
<rect width="500" height="500" fill="#593366"/>
<path d="M247.803 213.963L253.845 207.22C268.347 191.084 280.916 183.136 291.551 183.136C317.897 183.136 332.399 204.812 332.399 219.503C332.399 261.168 278.016 305 248.286 326.916C247.803 327.157 247.319 327.639 246.594 328.12C246.111 328.602 245.627 328.843 245.144 329.325C242.969 330.77 240.552 332.456 238.86 332.456C236.201 332.456 231.609 328.361 229.433 326.916C205.988 309.576 188.344 294.162 174.808 278.99C155.23 257.073 145.321 237.084 145.321 219.503C145.321 204.571 159.823 183.136 186.168 183.136C196.803 183.136 209.372 191.325 223.874 207.22L229.917 213.963C231.125 215.408 234.267 218.78 238.86 218.78C243.694 218.78 246.836 215.408 247.803 213.963ZM246.836 194.937C246.111 195.66 245.386 196.623 244.419 197.346C242.485 199.272 240.31 201.199 238.618 201.199C236.926 201.199 234.751 199.272 232.817 197.346C232.092 196.623 231.367 195.66 230.642 194.937C230.158 194.455 229.917 193.974 229.675 193.733C213.964 177.356 199.462 169.408 185.927 169.408C170.216 169.408 155.955 175.429 145.562 186.508C136.619 195.901 131.302 208.183 131.302 219.503C131.302 240.696 142.42 263.817 164.415 288.141C180.851 306.445 202.362 324.749 232.575 346.183C234.026 347.147 236.201 348.592 238.618 348.592C239.826 348.592 241.76 348.351 244.419 346.424H244.661C269.798 328.602 345.934 274.414 345.934 219.743C345.934 208.665 340.617 196.382 331.674 186.749C321.281 175.67 307.02 169.649 291.309 169.649C277.774 169.408 263.03 177.838 246.836 194.937ZM247.078 162.183C246.352 162.665 245.627 163.387 244.902 163.869C242.969 165.314 240.793 166.518 239.101 166.518C236.926 166.518 234.751 165.073 232.817 163.387C232.575 163.147 232.575 163.147 232.334 162.906C216.865 150.864 201.879 145.084 186.41 145.084C163.932 145.084 143.387 153.995 128.16 169.89C115.108 183.618 107.373 202.162 107.373 219.262C107.373 246.717 120.667 275.136 146.771 304.037C164.415 323.545 187.135 343.052 218.798 365.45C223.149 368.581 230.158 372.435 239.343 372.435C246.111 372.435 252.637 370.267 258.921 366.173L259.646 365.691C276.565 353.649 290.342 343.052 302.669 332.456C305.57 330.047 305.811 325.712 303.394 322.822C300.977 319.932 296.627 319.691 293.726 322.099C281.641 332.455 268.347 342.812 251.67 354.613L251.187 354.853C247.078 357.503 243.452 358.707 239.343 358.707C234.026 358.707 229.675 356.298 227.016 354.372C196.32 332.696 174.083 313.67 157.164 294.885C133.477 268.393 121.392 242.864 121.392 219.021C121.392 205.293 127.676 190.12 138.553 178.801C151.121 165.555 168.041 158.33 186.652 158.33C201.396 158.33 215.898 165.314 231.609 179.524L232.092 180.005C233.301 180.969 236.201 182.895 239.585 182.895C243.21 182.895 245.869 180.969 246.594 180.487L247.078 180.005C262.788 165.555 277.532 158.571 292.276 158.571C310.887 158.571 328.048 165.796 340.375 179.042C351.01 190.361 357.536 205.534 357.536 219.262C357.536 223.115 360.678 226.005 364.304 226.005C368.171 226.005 371.071 222.874 371.071 219.262C371.071 202.162 363.337 183.618 350.285 169.89C335.299 153.995 314.513 145.084 292.034 145.084C276.565 145.325 261.821 150.864 247.078 162.183ZM246.111 133.524C245.869 133.524 245.869 133.764 245.627 133.764C243.21 135.209 240.31 136.654 238.86 136.654C237.409 136.654 234.509 135.209 232.092 134.005C231.85 133.764 231.609 133.764 231.367 133.524C216.623 125.094 201.879 121 186.168 121C156.922 121 129.851 132.56 110.274 153.513C109.065 154.717 107.856 156.162 106.648 157.607C104.231 160.497 104.473 164.832 107.373 167.241C110.274 169.649 114.624 169.408 117.041 166.518C118.008 165.314 119.217 164.11 120.183 162.906C137.344 144.602 160.548 134.487 186.168 134.487C201.396 134.487 216.14 139.063 230.642 148.696C235.234 152.309 237.409 152.55 238.86 152.55C240.552 152.55 242.485 152.309 247.078 148.696C261.821 139.063 276.324 134.487 291.793 134.487C317.172 134.487 340.617 144.602 357.778 162.665C372.763 178.56 381.465 199.272 381.465 219.503C381.465 249.126 367.688 279.953 340.133 310.539C316.205 337.272 285.992 359.911 265.447 374.602L264.48 375.084C256.504 380.382 247.803 383.272 238.86 383.272C229.433 383.272 220.249 380.141 212.031 374.361C179.884 351.482 156.439 331.492 138.553 311.503C132.994 305.241 127.676 298.979 123.326 292.717C121.15 289.586 116.8 288.864 113.899 291.272C110.757 293.44 110.032 297.775 112.449 300.665C117.283 307.408 122.6 314.152 128.643 320.654C147.496 341.607 171.424 362.079 204.538 385.44C214.931 392.906 227.016 397 239.343 397C250.945 397 262.063 393.387 272.456 386.644L273.665 385.921C294.935 370.99 325.873 347.628 350.768 319.691C380.014 286.455 395 252.738 395 219.503C395 195.901 385.09 171.817 367.688 153.513C347.868 132.56 321.039 121 291.793 121C275.84 121 260.855 125.094 246.111 133.524Z" fill="white"/>
</svg>
