<svg width="500" height="500" viewBox="0 0 500 500" fill="none" xmlns="http://www.w3.org/2000/svg">
<path d="M178.954 216.688C191.001 213.677 203.39 212.252 215.806 212.45C227.589 212.413 239.797 214.754 249.714 221.422C257.076 226.289 262.693 233.537 266.08 241.637C268.871 248.037 270.319 254.932 271.154 261.844C272.241 272.981 271.872 284.391 268.826 295.208C266.758 302.785 263.367 310.093 258.398 316.218C253.823 321.945 247.897 326.447 241.152 329.319C231.953 333.326 221.684 333.959 211.791 333.265C205.975 333.143 200.219 332.178 194.537 331.014C194.537 345.007 194.537 359 194.537 372.997C194.675 374.746 193.397 376.461 191.556 376.396C183.294 376.559 175.028 376.396 166.766 376.465C165.289 376.429 163.667 376.611 162.365 375.768C161.229 374.977 160.905 373.484 160.921 372.182C160.921 324.184 160.921 276.188 160.921 228.195C160.863 226.917 161.173 225.648 161.816 224.541C162.459 223.434 163.407 222.536 164.547 221.953C169.057 219.52 174.054 218.108 178.966 216.701L178.954 216.688ZM199.704 242.119C197.997 242.428 196.338 242.987 194.61 243.19C194.456 262.991 194.61 282.805 194.537 302.61C201.996 304.484 209.751 305.279 217.421 304.516C219.082 304.208 220.711 303.748 222.288 303.141C227.277 301.239 231.211 297.09 233.336 292.235C236.212 286.058 236.715 279.138 236.934 272.422C236.691 264.914 236.204 256.94 232.067 250.41C229.013 245.397 223.391 242.428 217.688 241.629C211.726 240.529 205.638 241.215 199.692 242.107L199.704 242.119Z" fill="white"/>
<path d="M326.575 212.543C332.529 212.438 338.52 212.199 344.421 213.01C351.199 213.768 357.92 215.557 364.008 218.668C370.365 221.875 375.839 226.592 379.952 232.405C387.35 242.951 390.177 256.036 390.554 268.735C391.101 280.874 389.503 293.29 384.519 304.452C380.235 314.267 372.874 322.898 363.282 327.834C353.304 333.107 341.688 334.085 330.594 333.257C324.807 333.18 319.112 332.077 313.438 331.043C313.438 345.238 313.503 359.479 313.401 373.695C313.503 375.553 311.54 376.571 309.909 376.433C301.25 376.49 292.59 376.474 283.951 376.433C282.446 376.494 280.706 375.804 280.24 374.235C279.834 372.916 280.041 371.501 279.984 370.142C279.984 322.822 279.984 275.503 279.984 228.183C279.952 226.585 280.248 224.841 281.396 223.645C283.249 221.617 285.914 220.72 288.388 219.714C300.584 215.123 313.612 213.225 326.571 212.527L326.575 212.543ZM322.263 241.621C319.25 241.877 316.277 242.493 313.409 243.454C313.515 263.138 313.45 282.829 313.442 302.513C320.862 304.52 328.58 305.194 336.236 304.504C339.615 303.995 342.827 302.703 345.618 300.732C349.065 298.299 351.422 294.596 352.979 290.726C355.819 283.198 356.155 275.005 355.721 267.056C355.255 262.071 354.504 256.989 352.249 252.454C350.271 248.334 346.863 245.072 342.661 243.275C336.24 240.627 329.049 240.728 322.268 241.637L322.263 241.621Z" fill="white"/>
<path d="M161.965 129.561C144.851 129.236 118.916 142.979 108.087 149.891C53.8134 187.299 30.8361 279.598 98.9756 349.94C103.333 353.464 112.524 359.129 114.426 353.599V348.72L114.208 347.922C108.714 327.785 102.48 304.932 97.8548 283.664C72.829 187.705 207.724 113.902 278.436 209.662L281.605 208.849C335.483 161.683 372.723 168.189 406 166.562C391.738 157.21 354.578 138.425 320.033 152.738L304.187 160.463L282.794 175.914H280.417C280.417 175.914 280.079 176.21 278.436 173.881C240.009 119.396 183.358 129.968 161.965 129.561Z" fill="white"/>
</svg>
