<svg width="500" height="500" viewBox="0 0 500 500" fill="none" xmlns="http://www.w3.org/2000/svg">
<path d="M136.106 222.674C136.106 188.883 117.065 177.333 91.1133 177.333H42V322.754H76.0865V269.879H88.6426C116.519 269.879 136.106 257.011 136.106 222.674ZM101.5 223.385C101.5 236.504 97.3365 241.646 87.5131 241.646H76.0847V205.576H87.7639C97.7359 205.574 101.5 210.526 101.5 223.385Z" fill="white"/>
<path d="M239.601 282.125C239.601 257.932 228.693 245.88 199.446 233.142C184.696 226.5 181.019 222.321 181.019 214.387C181.019 208.984 184.696 204.041 191.313 204.041C200.564 204.041 204.084 207.812 214.092 219.709L238.171 198.015C225.919 183.066 214.811 175.002 192.44 175.002C164.633 175.002 147.325 193.67 147.325 217.273C147.325 240.39 157.947 251.289 186.934 263.94C203.07 271.146 205.507 276.113 205.507 284.161C205.507 292.173 200.304 295.807 193.055 295.807C185.911 295.807 178.045 289.719 168.413 278.3L144.577 299.639C156.63 315.645 169.697 324.993 192.44 324.993C219.494 324.995 239.601 309.334 239.601 282.125Z" fill="white"/>
<path d="M354.439 249.805C354.439 198.578 334.982 175 302.588 175C270.002 175 250.266 198.984 250.266 250.117C250.266 301.571 269.506 325 301.91 325C334.835 325 354.439 301.058 354.439 249.805ZM318.707 250.117C318.707 285.443 313.399 294.973 302.588 294.973C291.705 294.973 286.147 284.88 286.147 249.805C286.147 214.704 291.245 204.76 302.275 204.76C313.104 204.76 318.707 215.113 318.707 250.117Z" fill="white"/>
<path d="M457.934 322.752V292.985H405.977V261.345H439.04V232.01H405.977V207.04H456.608V177.332H371.483V322.752H457.934Z" fill="white"/>
</svg>
