<svg width="500" height="500" viewBox="0 0 500 500" fill="none" xmlns="http://www.w3.org/2000/svg">
<g clip-path="url(#clip0_2_113)">
<path d="M73.1239 209.597C91.0814 271.469 90.6194 269.725 91.7958 273.201C92.57 275.525 96.0804 278.675 98.4256 278.675C102.327 278.675 105.257 276.001 107.795 267.489L144.084 163.528C149.01 149.992 151.112 150 162.818 150C178.041 150 176.869 157.736 174.52 164.693L119.506 315.001C116.77 322.727 111.693 327.295 104.281 327.295H93.3555C87.1128 327.295 80.6701 324.667 76.9633 313.843L41.514 208.207C39.3689 202.016 44.2426 197.766 50.489 197.766H58.297C65.7086 197.766 70.7824 201.863 73.1239 209.597Z" fill="#5AC035"/>
<path d="M366.159 315.774C360.299 324.666 356.011 327.293 348.987 327.293H337.672C332.204 327.293 328.3 323.115 330.253 319.248C331.422 316.932 331.422 317.163 332.987 314.842L366.159 268.364C369.282 264.111 371.236 259.431 371.236 255.947C371.236 252.082 369.082 247.809 367.718 245.873L342.981 210.768C338.302 204.198 339.08 197.766 346.494 197.766H359.375C365.626 197.766 370.69 201.094 374.206 206.899L382.549 221.376C385.672 226.405 389.575 229.556 393.867 229.556C397.378 229.556 399.223 227.654 403.628 222.627L425.417 194.557C429.621 189.015 434.394 183.836 442.978 183.836H452.344C461.327 183.836 460.936 190.697 458.204 194.572L421.185 241.839C417.088 247.448 415.335 251.582 415.335 255.449C415.335 258.547 416.111 262.447 421.185 269.405L448.118 306.932C457.283 319.696 456.311 319.239 456.311 321.564C456.311 325.042 453.586 327.293 448.118 327.293H436.408C430.549 327.293 424.89 324.08 421.185 318.09L404.017 290.869C399.917 284.488 396.989 282.67 393.473 282.67C388.795 282.67 385.285 285.881 382.16 290.908L366.159 315.774Z" fill="#5AC035"/>
<path d="M247.457 350C191.209 350 160.532 307.947 160.532 261.341C160.532 199.029 205.523 170.656 246.432 170.656C303.699 170.656 334.379 213.717 334.379 260.325C334.383 312.51 299.616 350 247.457 350ZM245.371 322.464C278.679 322.464 299.5 298.223 299.5 260.073C299.498 225.005 279.201 198.19 247.453 198.19C217.786 198.19 195.413 219.333 195.413 259.558C195.413 296.686 216.226 322.464 245.371 322.464" fill="#5AC035"/>
</g>
<defs>
<clipPath id="clip0_2_113">
<rect width="418.919" height="200" fill="white" transform="translate(41 150)"/>
</clipPath>
</defs>
</svg>
