<svg width="500" height="500" viewBox="0 0 500 500" fill="none" xmlns="http://www.w3.org/2000/svg">
<rect width="500" height="500" fill="#5AC035"/>
<g clip-path="url(#clip0_2_133)">
<path d="M81.5467 218.617C98.6227 277.395 98.1834 275.739 99.302 279.041C100.038 281.248 103.376 284.241 105.606 284.241C109.316 284.241 112.103 281.701 114.516 273.614L149.023 174.852C153.708 161.993 155.707 162 166.837 162C181.313 162 180.198 169.349 177.965 175.959L125.652 318.751C123.05 326.091 118.222 330.43 111.174 330.43H100.785C94.849 330.43 88.7225 327.934 85.1977 317.65L51.4887 217.297C49.4489 211.416 54.0834 207.378 60.0231 207.378H67.4478C74.4955 207.378 79.3202 211.269 81.5467 218.617Z" fill="white"/>
<path d="M360.195 319.485C354.624 327.933 350.546 330.429 343.866 330.429H333.107C327.907 330.429 324.196 326.459 326.052 322.786C327.164 320.585 327.164 320.805 328.652 318.6L360.195 274.445C363.165 270.406 365.024 265.959 365.024 262.65C365.024 258.978 362.975 254.919 361.678 253.079L338.156 219.73C333.706 213.488 334.446 207.378 341.496 207.378H353.745C359.688 207.378 364.504 210.539 367.848 216.054L375.781 229.807C378.751 234.584 382.462 237.579 386.544 237.579C389.882 237.579 391.637 235.771 395.825 230.995L416.545 204.329C420.542 199.064 425.081 194.144 433.244 194.144H442.15C450.691 194.144 450.319 200.663 447.721 204.343L412.52 249.247C408.624 254.576 406.957 258.503 406.957 262.176C406.957 265.12 407.696 268.825 412.52 275.435L438.131 311.085C446.846 323.212 445.922 322.777 445.922 324.986C445.922 328.29 443.33 330.429 438.131 330.429H426.996C421.425 330.429 416.043 327.376 412.52 321.685L396.195 295.825C392.297 289.763 389.512 288.036 386.168 288.036C381.721 288.036 378.383 291.087 375.411 295.862L360.195 319.485Z" fill="white"/>
<path d="M247.321 352C193.834 352 164.664 312.049 164.664 267.774C164.664 208.578 207.446 181.623 246.346 181.623C300.802 181.623 329.976 222.531 329.976 266.809C329.979 316.385 296.919 352 247.321 352ZM245.338 325.841C277.011 325.841 296.809 302.811 296.809 266.57C296.807 233.255 277.507 207.781 247.317 207.781C219.107 207.781 197.832 227.867 197.832 266.08C197.832 301.352 217.624 325.841 245.338 325.841" fill="white"/>
</g>
<defs>
<clipPath id="clip0_2_133">
<rect width="398.352" height="190" fill="white" transform="translate(51 162)"/>
</clipPath>
</defs>
</svg>
